<svg height="512" viewBox="0 0 256 256" width="512" xmlns="http://www.w3.org/2000/svg"><path d="m121.99 23h-4.812a54.061 54.061 0 0 0 -54 54v7.472h12.016v-7.472h-.016a42.06 42.06 0 0 1 26-38.825c5.397-9.384 12.734-15.175 20.812-15.175z" fill="#a4d4a0"/><path d="m138.822 23h-4.812c8.078 0 15.415 5.791 20.812 15.175a42.059 42.059 0 0 1 26 38.825v7.472h12v-7.472a54.06 54.06 0 0 0 -54-54z" fill="#419b46"/><path d="m134.01 23h-12.02c-8.078 0-15.415 5.791-20.813 15.175a41.751 41.751 0 0 1 16-3.175h21.644a41.742 41.742 0 0 1 16 3.175c-5.396-9.384-12.733-15.175-20.811-15.175z" fill="#65bc49"/><path d="m192.821 87.472h-12a3 3 0 0 1 -3-3v-7.472a39.044 39.044 0 0 0 -39-39h-21.643a39.045 39.045 0 0 0 -39 38.7 2.983 2.983 0 0 1 .015.3v7.472a3 3 0 0 1 -3 3h-12.015a3 3 0 0 1 -3-3v-7.472a57.065 57.065 0 0 1 57-57h21.644a57.064 57.064 0 0 1 57 57v7.472a3 3 0 0 1 -3.001 3zm-9-6h6v-4.472a51.057 51.057 0 0 0 -51-51h-21.643a51.058 51.058 0 0 0 -51 51v4.472h6.016v-4.159c-.01-.1-.016-.208-.016-.313a45.051 45.051 0 0 1 45-45h21.644a45.05 45.05 0 0 1 45 45z" fill="#1c2d6b"/><path d="m128 125a60 60 0 0 0 -60 60v48h36v-84a24 24 0 0 1 24-24z" fill="#a4d4a0"/><path d="m128 125a24 24 0 0 1 24 24v84h36v-48a60 60 0 0 0 -60-60z" fill="#419b46"/><path d="m128 125a24 24 0 0 0 -24 24v84h48v-84a24 24 0 0 0 -24-24z" fill="#65bc49"/><path d="m188 236h-120a3 3 0 0 1 -3-3v-48a63 63 0 0 1 126 0v48a3 3 0 0 1 -3 3zm-117-6h114v-45a57 57 0 0 0 -114 0z" fill="#1c2d6b"/><path d="m164 236a3 3 0 0 1 -3-3v-48a3 3 0 0 1 6 0v48a3 3 0 0 1 -3 3z" fill="#1c2d6b"/><path d="m92 236a3 3 0 0 1 -3-3v-48a3 3 0 0 1 6 0v48a3 3 0 0 1 -3 3z" fill="#1c2d6b"/><path d="m121.072 131v-.993c2.122-3.213 4.464-5.007 6.928-5.007a59.771 59.771 0 0 0 -24 5.007v.993a24 24 0 0 0 24 24c-3.826 0-6.928-10.745-6.928-24z" fill="#ede49d"/><path d="m128 125c2.464 0 4.806 1.794 6.928 5.007v.993c0 13.255-3.1 24-6.928 24a24 24 0 0 0 24-24v-.993a59.771 59.771 0 0 0 -24-5.007z" fill="#d3ba2a"/><path d="m134.928 131v-.993c-2.122-3.213-4.464-5.007-6.928-5.007s-4.806 1.794-6.928 5.007v.993c0 13.255 3.1 24 6.928 24s6.928-10.745 6.928-24z" fill="#eee045"/><path d="m128 158a27.03 27.03 0 0 1 -27-27v-.993a3 3 0 0 1 1.8-2.749 63.024 63.024 0 0 1 50.4 0 3 3 0 0 1 1.8 2.749v.993a27.03 27.03 0 0 1 -27 27zm-20.977-26a21 21 0 0 0 41.954 0 57.057 57.057 0 0 0 -41.954 0z" fill="#1c2d6b"/><path d="m112 89c0-26.51 7.163-48 16-48a48 48 0 0 0 0 96c-8.837 0-16-21.49-16-48z" fill="#ede49d"/><path d="m128 41c8.837 0 16 21.49 16 48s-7.163 48-16 48a48 48 0 0 0 0-96z" fill="#d3ba2a"/><ellipse cx="128" cy="89" fill="#eee045" rx="16" ry="48"/><path d="m128 122a11.038 11.038 0 0 1 -9.524-5.493 3 3 0 0 1 5.192-3.007 5 5 0 0 0 8.664 0 3 3 0 1 1 5.191 3.007 11.036 11.036 0 0 1 -9.523 5.493z" fill="#1c2d6b"/><path d="m128 140a51 51 0 1 1 51-51 51.057 51.057 0 0 1 -51 51zm0-96a45 45 0 1 0 45 45 45.051 45.051 0 0 0 -45-45z" fill="#1c2d6b"/><path d="m128 41a48 48 0 0 0 -48 48 14 14 0 0 0 13.435-10.09 35.932 35.932 0 0 1 7.375-13.493 5.056 5.056 0 0 1 6.728-.811 35.907 35.907 0 0 0 6.076 3.37c2.599-15.971 8.063-26.976 14.386-26.976z" fill="#ef7f72"/><path d="m128 41c6.323 0 11.787 11.005 14.386 26.976a35.907 35.907 0 0 0 6.076-3.37 5.056 5.056 0 0 1 6.728.811 35.932 35.932 0 0 1 7.375 13.493 14 14 0 0 0 13.435 10.09 48 48 0 0 0 -48-48z" fill="#e8383b"/><path d="m128 41c-6.323 0-11.787 11.005-14.386 26.976a35.731 35.731 0 0 0 28.772 0c-2.599-15.971-8.063-26.976-14.386-26.976z" fill="#e95947"/><path d="m176 92a17.092 17.092 0 0 1 -16.315-12.25 32.71 32.71 0 0 0 -6.76-12.366 2.05 2.05 0 0 0 -2.754-.313 38.937 38.937 0 0 1 -44.343 0 2.047 2.047 0 0 0 -2.753.313 32.712 32.712 0 0 0 -6.76 12.366 17.092 17.092 0 0 1 -16.315 12.25 3 3 0 0 1 -3-3 51 51 0 0 1 102 0 3 3 0 0 1 -3 3zm-48-48a45.059 45.059 0 0 0 -44.868 41.537 11.08 11.08 0 0 0 7.423-7.467 38.67 38.67 0 0 1 7.99-14.62 8.065 8.065 0 0 1 10.7-1.309 32.939 32.939 0 0 0 37.505 0 8.065 8.065 0 0 1 10.7 1.309 38.652 38.652 0 0 1 7.989 14.62 11.083 11.083 0 0 0 7.424 7.467 45.059 45.059 0 0 0 -44.863-41.537z" fill="#1c2d6b"/><path d="m111.575 89v15.254a2.746 2.746 0 0 1 -2.747 2.746h8.172a5 5 0 0 0 5-5v-13z" fill="#4b67b0"/><path d="m102.567 104.254v-15.254h-10.426v13a5 5 0 0 0 5 5h8.172a2.745 2.745 0 0 1 -2.746-2.746z" fill="#89aadb"/><path d="m111.575 104.254v-15.254h-9.008v15.254a2.745 2.745 0 0 0 2.746 2.746h3.515a2.746 2.746 0 0 0 2.747-2.746z" fill="#6287c5"/><path d="m117 110h-19.858a8.009 8.009 0 0 1 -8-8v-13a3 3 0 0 1 3-3h29.858a3 3 0 0 1 3 3v13a8.009 8.009 0 0 1 -8 8zm-21.858-18v10a2 2 0 0 0 2 2h19.858a2 2 0 0 0 2-2v-10z" fill="#1c2d6b"/><path d="m134.141 89h29.859a0 0 0 0 1 0 0v13a5 5 0 0 1 -5 5h-19.859a5 5 0 0 1 -5-5v-13a0 0 0 0 1 0 0z" fill="#89aadb"/><path d="m153.575 89v15.254a2.746 2.746 0 0 1 -2.747 2.746h8.172a5 5 0 0 0 5-5v-13z" fill="#4b67b0"/><path d="m144.567 104.254v-15.254h-10.426v13a5 5 0 0 0 5 5h8.172a2.746 2.746 0 0 1 -2.746-2.746z" fill="#89aadb"/><path d="m153.575 104.254v-15.254h-9.008v15.254a2.746 2.746 0 0 0 2.746 2.746h3.515a2.746 2.746 0 0 0 2.747-2.746z" fill="#6287c5"/><path d="m159 110h-19.858a8.009 8.009 0 0 1 -8-8v-13a3 3 0 0 1 3-3h29.858a3 3 0 0 1 3 3v13a8.009 8.009 0 0 1 -8 8zm-21.858-18v10a2 2 0 0 0 2 2h19.858a2 2 0 0 0 2-2v-10z" fill="#1c2d6b"/><path d="m134 101h-12a3 3 0 0 1 0-6h12a3 3 0 0 1 0 6z" fill="#1c2d6b"/><path d="m38 203h9.017v12h-9.017z" fill="#ef7f72"/><path d="m52.983 203h9.017v12h-9.017z" fill="#e8383b"/><path d="m47.017 203h5.967v12h-5.967z" fill="#e95947"/><path d="m20 215h68.836v18h-68.836z" fill="#89aadb"/><path d="m167.164 215h68.836v18h-68.836z" fill="#4b67b0"/><path d="m88.836 215h78.328v18h-78.328z" fill="#6287c5"/><path d="m236 236h-216a3 3 0 0 1 -3-3v-18a3 3 0 0 1 3-3h216a3 3 0 0 1 3 3v18a3 3 0 0 1 -3 3zm-213-6h210v-12h-210z" fill="#1c2d6b"/><path d="m62 218h-24a3 3 0 0 1 -3-3v-12a3 3 0 0 1 3-3h24a3 3 0 0 1 3 3v12a3 3 0 0 1 -3 3zm-21-6h18v-6h-18z" fill="#1c2d6b"/><path d="m194 203h9.017v12h-9.017z" fill="#ede49d"/><path d="m208.983 203h9.017v12h-9.017z" fill="#d3ba2a"/><path d="m203.017 203h5.967v12h-5.967z" fill="#eee045"/><path d="m218 218h-24a3 3 0 0 1 -3-3v-12a3 3 0 0 1 3-3h24a3 3 0 0 1 3 3v12a3 3 0 0 1 -3 3zm-21-6h18v-6h-18z" fill="#1c2d6b"/><path d="m186.822 77a2.936 2.936 0 0 1 2.936 2.936v30.128a2.936 2.936 0 0 1 -2.936 2.936 10.822 10.822 0 0 0 10.822-10.822v-14.356a10.822 10.822 0 0 0 -10.822-10.822z" fill="#4b67b0"/><path d="m183.886 110.064v-30.128a2.935 2.935 0 0 1 2.936-2.936 10.822 10.822 0 0 0 -10.822 10.822v14.356a10.822 10.822 0 0 0 10.822 10.822 2.935 2.935 0 0 1 -2.936-2.936z" fill="#89aadb"/><path d="m189.758 110.064v-30.128a2.936 2.936 0 0 0 -5.872 0v30.128a2.936 2.936 0 0 0 5.872 0z" fill="#6287c5"/><path d="m69.178 77a2.935 2.935 0 0 1 2.936 2.936v30.128a2.935 2.935 0 0 1 -2.936 2.936 10.822 10.822 0 0 0 10.822-10.822v-14.356a10.822 10.822 0 0 0 -10.822-10.822z" fill="#4b67b0"/><path d="m66.242 110.064v-30.128a2.936 2.936 0 0 1 2.936-2.936 10.822 10.822 0 0 0 -10.822 10.822v14.356a10.822 10.822 0 0 0 10.822 10.822 2.936 2.936 0 0 1 -2.936-2.936z" fill="#89aadb"/><path d="m72.114 110.064v-30.128a2.936 2.936 0 1 0 -5.872 0v30.128a2.936 2.936 0 0 0 5.872 0z" fill="#6287c5"/><path d="m69.178 116a13.838 13.838 0 0 1 -13.822-13.822v-14.356a13.822 13.822 0 0 1 27.644 0v14.356a13.837 13.837 0 0 1 -13.822 13.822zm0-36a7.831 7.831 0 0 0 -7.822 7.822v14.356a7.822 7.822 0 0 0 15.644 0v-14.356a7.831 7.831 0 0 0 -7.822-7.822z" fill="#1c2d6b"/><path d="m186.822 116a13.837 13.837 0 0 1 -13.822-13.822v-14.356a13.822 13.822 0 1 1 27.644 0v14.356a13.838 13.838 0 0 1 -13.822 13.822zm0-36a7.831 7.831 0 0 0 -7.822 7.822v14.356a7.822 7.822 0 1 0 15.644 0v-14.356a7.831 7.831 0 0 0 -7.822-7.822z" fill="#1c2d6b"/><path d="m29.957 80c0-4.971.915-9 2.043-9a9 9 0 0 0 0 18c-1.128 0-2.043-4.029-2.043-9z" fill="#89aadb"/><path d="m32 71c1.128 0 2.043 4.029 2.043 9s-.915 9-2.043 9a9 9 0 0 0 0-18z" fill="#4b67b0"/><ellipse cx="32" cy="80" fill="#6287c5" rx="2.043" ry="9"/><path d="m32 92a12 12 0 1 1 12-12 12.013 12.013 0 0 1 -12 12zm0-18a6 6 0 1 0 6 6 6.006 6.006 0 0 0 -6-6z" fill="#1c2d6b"/><path d="m41 83a3 3 0 0 1 -3-3v-33a3 3 0 0 1 6 0v33a3 3 0 0 1 -3 3z" fill="#1c2d6b"/><path d="m41 47h5.017v10.358h-5.017z" fill="#89aadb"/><path d="m47.983 47h5.017v10.358h-5.017z" fill="#4b67b0"/><path d="m46.017 47h1.967v10.358h-1.967z" fill="#6287c5"/><path d="m53 60.358h-12a3 3 0 0 1 -3-3v-10.358a3 3 0 0 1 3-3h12a3 3 0 0 1 3 3v10.358a3 3 0 0 1 -3 3zm-9-6h6v-4.358h-6z" fill="#1c2d6b"/><path d="m194.957 176c0-4.971.915-9 2.043-9a9 9 0 0 0 0 18c-1.128 0-2.043-4.029-2.043-9z" fill="#ef7f72"/><path d="m197 167c1.128 0 2.043 4.029 2.043 9s-.915 9-2.043 9a9 9 0 0 0 0-18z" fill="#e8383b"/><ellipse cx="197" cy="176" fill="#e95947" rx="2.043" ry="9"/><path d="m224.957 176c0-4.971.915-9 2.043-9a9 9 0 0 0 0 18c-1.128 0-2.043-4.029-2.043-9z" fill="#ef7f72"/><path d="m227 167c1.128 0 2.043 4.029 2.043 9s-.915 9-2.043 9a9 9 0 0 0 0-18z" fill="#e8383b"/><ellipse cx="227" cy="176" fill="#e95947" rx="2.043" ry="9"/><g fill="#1c2d6b"><path d="m197 188a12 12 0 1 1 12-12 12.013 12.013 0 0 1 -12 12zm0-18a6 6 0 1 0 6 6 6.006 6.006 0 0 0 -6-6z"/><path d="m206 179a3 3 0 0 1 -3-3v-33a3 3 0 0 1 6 0v33a3 3 0 0 1 -3 3z"/><path d="m227 188a12 12 0 1 1 12-12 12.013 12.013 0 0 1 -12 12zm0-18a6 6 0 1 0 6 6 6.006 6.006 0 0 0 -6-6z"/><path d="m236 179a3 3 0 0 1 -3-3v-33a3 3 0 0 1 6 0v33a3 3 0 0 1 -3 3z"/></g><path d="m206 143h11.043v12.333h-11.043z" fill="#ef7f72"/><path d="m224.957 143h11.043v12.333h-11.043z" fill="#e8383b"/><path d="m217.043 143h7.914v12.333h-7.914z" fill="#e95947"/><path d="m236 158.333h-30a3 3 0 0 1 -3-3v-12.333a3 3 0 0 1 3-3h30a3 3 0 0 1 3 3v12.333a3 3 0 0 1 -3 3zm-27-6h24v-6.333h-24z" fill="#1c2d6b"/><path d="m43.044 152.6c0 4.97-.914 9-2.043 9a9 9 0 1 0 0-18c1.129 0 2.043 4.032 2.043 9z" fill="#419b46"/><path d="m41 161.6c-1.128 0-2.043-4.03-2.043-9s.915-9 2.043-9a9 9 0 0 0 0 18z" fill="#a4d4a0"/><ellipse cx="41.001" cy="152.603" fill="#65bc49" rx="2.043" ry="9"/><path d="m26.985 175.244h5.017v10.358h-5.017z" fill="#419b46"/><path d="m20.001 175.244h5.017v10.358h-5.017z" fill="#a4d4a0"/><path d="m25.018 175.244h1.967v10.358h-1.967z" fill="#65bc49"/><path d="m41 164.6a12 12 0 1 1 12-12 12.014 12.014 0 0 1 -12 12zm0-18a6 6 0 1 0 6 6 6.006 6.006 0 0 0 -6-6z" fill="#1c2d6b"/><path d="m32 188.6a3 3 0 0 1 -3-3v-33a3 3 0 0 1 6 0v33a3 3 0 0 1 -3 3z" fill="#1c2d6b"/><path d="m32 188.6h-12a3 3 0 0 1 -3-3v-10.356a3 3 0 0 1 3-3h12a3 3 0 0 1 3 3v10.356a3 3 0 0 1 -3 3zm-9-6h6v-4.359h-6z" fill="#1c2d6b"/></svg>